<?xml version="1.0" encoding="UTF-8" standalone="no"?>
<!-- Created with Inkscape (http://www.inkscape.org/) -->

<svg
   width="104.55331mm"
   height="19.942371mm"
   viewBox="0 0 104.55331 19.942371"
   version="1.1"
   id="svg1"
   xmlns="http://www.w3.org/2000/svg"
   xmlns:svg="http://www.w3.org/2000/svg">
  <defs
     id="defs1" />
  <g
     id="layer1"
     transform="translate(-74.684806,-217.06783)">
    <path
       d="m 89.708138,219.01863 h 2.96333 v 2.96333 4.23334 h -2.11666 v 1.69333 h 2.11666 v 4.23333 q -0.0339,0.67734 -0.2032,1.23614 -0.1524,0.5588 -0.508,0.94826 -0.33866,0.38947 -0.89746,0.59267 -0.54187,0.22013 -1.35467,0.18627 h -10.16 -2.96333 v -2.96334 -10.16 l 2.96333,-2.96333 z m 16.933322,0 2.96334,2.96333 v 7.62 h -2.11667 v 1.69334 h 2.11667 v 3.81 h -5.92667 v -1.69334 h -2.11667 v 1.69334 h -8.043322 v -16.08667 z m -5.08,7.19667 h 2.11667 v -1.69334 h -2.11667 z m 21.97947,-7.24747 2.96333,2.96333 v 13.12334 h -6.97653 v -1.69334 h -2.1336 v 1.69334 h -6.97653 v -16.08667 z m -6.1468,8.89 h 2.1336 v -1.69333 h -2.1336 z m 23.114,-8.8392 2.96333,2.96333 v 10.16 q -0.2032,1.3716 -0.9652,2.0828 -0.74506,0.72814 -1.99813,0.88054 H 127.3848 v -16.08667 z m -6.12987,7.19667 h 2.09974 v -1.69334 h -2.09974 z m 0,5.08 h 2.09974 v -1.69334 h -2.09974 z m 23.02934,-12.32747 2.96333,2.96333 v 13.12334 h -6.97653 v -1.69334 h -2.1336 v 1.69334 h -6.97654 v -16.08667 z m -6.1468,8.89 h 2.1336 v -1.69333 h -2.1336 z m 9.99066,-8.8392 h 9.36414 v 1.69333 h 2.06586 v -1.69333 h 4.65667 v 13.12333 q -0.0508,0.94827 -0.3048,1.524 -0.23707,0.57574 -0.64347,0.89747 -0.38946,0.32173 -0.9144,0.42333 -0.52493,0.11854 -1.10066,0.11854 h -5.08 v -1.69334 h -2.11667 v 1.69334 h -5.92667 z"
       id="text4-9"
       style="font-size:64px;line-height:1;font-family:PoolParty;-inkscape-font-specification:'PoolParty, Normal';white-space:pre;fill:#e39c44;fill-opacity:1;stroke:#343434;stroke-width:3.8;stroke-dasharray:none;stroke-opacity:1;paint-order:markers stroke fill"
       aria-label="craban" />
  </g>
</svg>
